<?xml version="1.0" encoding="utf-8"?>
<!-- Generator: Adobe Illustrator 24.0.0, SVG Export Plug-In . SVG Version: 6.00 Build 0)  -->
<svg version="1.1" id="Layer_1" xmlns="http://www.w3.org/2000/svg" xmlns:xlink="http://www.w3.org/1999/xlink" x="0px" y="0px"
	 viewBox="0 0 28 28" style="enable-background:new 0 0 28 28;" xml:space="preserve">
<style type="text/css">
	.st0{fill:#793E7F;}
</style>
<g>
	<g>
		<path class="st0" d="M14,5.65c1.08,0,1.89,0.78,1.89,1.88S15.11,9.38,14,9.38c-1.08,0-1.89-0.75-1.89-1.91
			C12.11,6.4,12.92,5.65,14,5.65z"/>
		<path class="st0" d="M14,12.14c1.08,0,1.89,0.78,1.89,1.88s-0.78,1.85-1.89,1.85c-1.08,0-1.89-0.75-1.89-1.91
			C12.11,12.89,12.92,12.14,14,12.14z"/>
		<path class="st0" d="M14,18.62c1.08,0,1.89,0.78,1.89,1.88c0,1.1-0.78,1.85-1.89,1.85c-1.08,0-1.89-0.75-1.89-1.91
			C12.11,19.37,12.92,18.62,14,18.62z"/>
	</g>
</g>
</svg>
