<?xml version="1.0" encoding="utf-8"?>
<!-- Generator: Adobe Illustrator 24.0.0, SVG Export Plug-In . SVG Version: 6.00 Build 0)  -->
<svg version="1.1" id="Layer_1" xmlns="http://www.w3.org/2000/svg" xmlns:xlink="http://www.w3.org/1999/xlink" x="0px" y="0px"
	 viewBox="0 0 14 14" style="enable-background:new 0 0 14 14;" xml:space="preserve">
<style type="text/css">
	.st0{fill:#61BCB8;}
</style>
<g>
	<path class="st0" d="M4.25,1.51C3.88,1.37,3.58,1.27,3.29,1.16c-0.37-0.15-0.52-0.43-0.4-0.74C3,0.13,3.29,0.03,3.66,0.17
		C4.53,0.48,5.4,0.8,6.26,1.12C6.35,1.16,6.44,1.2,6.55,1.26C6.27,2.05,5.98,2.82,5.7,3.59C5.64,3.77,5.57,3.94,5.51,4.11
		C5.35,4.52,5.08,4.68,4.77,4.55c-0.31-0.12-0.39-0.39-0.24-0.8c0.16-0.44,0.32-0.88,0.48-1.33C4.98,2.4,4.96,2.38,4.94,2.35
		C4.72,2.47,4.5,2.58,4.3,2.72C2.53,3.99,1.71,5.73,2.05,7.88c0.35,2.22,1.69,3.66,3.87,4.29C6,12.2,6.08,12.21,6.16,12.24
		c0.32,0.1,0.47,0.35,0.39,0.64c-0.09,0.31-0.33,0.45-0.62,0.36c-0.53-0.16-1.09-0.3-1.57-0.56c-2.13-1.15-3.32-2.96-3.4-5.37
		c-0.09-2.4,0.96-4.27,2.97-5.59C4,1.67,4.08,1.62,4.25,1.51z"/>
	<path class="st0" d="M7.42,12.77c0.38-1.04,0.74-2.02,1.11-2.99C8.65,9.46,8.93,9.34,9.2,9.44c0.28,0.11,0.41,0.36,0.3,0.69
		c-0.13,0.42-0.29,0.82-0.44,1.24c-0.03,0.07-0.04,0.15-0.09,0.34c0.31-0.18,0.55-0.3,0.76-0.45C11.52,9.95,12.3,8.17,11.92,6
		c-0.39-2.2-1.78-3.59-3.93-4.21c-0.21-0.06-0.46-0.22-0.54-0.4C7.27,1,7.66,0.66,8.12,0.77c1.59,0.37,2.87,1.21,3.79,2.55
		c2.08,3.04,1.24,7.03-1.89,8.99c-0.07,0.04-0.14,0.09-0.27,0.18c0.34,0.13,0.62,0.23,0.91,0.35c0.41,0.16,0.56,0.4,0.46,0.7
		c-0.11,0.32-0.4,0.43-0.81,0.28C9.36,13.48,8.41,13.13,7.42,12.77z"/>
</g>
</svg>
