<?xml version="1.0" encoding="utf-8"?>
<!-- Generator: Adobe Illustrator 24.0.0, SVG Export Plug-In . SVG Version: 6.00 Build 0)  -->
<svg version="1.1" id="Layer_1" xmlns="http://www.w3.org/2000/svg" xmlns:xlink="http://www.w3.org/1999/xlink" x="0px" y="0px"
	 viewBox="0 0 112 65" style="enable-background:new 0 0 112 65;" xml:space="preserve">
<style type="text/css">
	.st0{fill:none;stroke:#61BCB8;stroke-width:1.5;stroke-linecap:round;stroke-linejoin:round;stroke-miterlimit:10;}
	.st1{fill:#61BCB8;}
</style>
<g>
	<polygon class="st0" points="79.98,59 79.98,64 27.67,64 27.67,59 23.45,55.52 23.45,26.44 91.87,26.44 91.87,51.22 	"/>
	<rect x="4.67" y="58.63" class="st0" width="22.81" height="5.37"/>
	
		<rect x="42.83" y="41.12" transform="matrix(-1.836970e-16 1 -1 -1.836970e-16 106.8293 -8.2689)" class="st0" width="29.44" height="16.32"/>
	<circle class="st1" cx="53.64" cy="50.58" r="1.34"/>
	
		<rect x="72.9" y="33.74" transform="matrix(-1.836970e-16 1 -1 -1.836970e-16 118.1199 -38.3428)" class="st0" width="10.66" height="12.3"/>
	
		<rect x="31.31" y="33.74" transform="matrix(-1.836970e-16 1 -1 -1.836970e-16 76.5308 3.2463)" class="st0" width="10.66" height="12.3"/>
	<path class="st1" d="M23.45,53.55c-0.86-1.33-2.52-2.15-4.36-2c-1.66-1.3-4.38-1.3-6.04,0c-1.83-0.16-3.49,0.67-4.36,2
		c-2.27,0.23-4.03,1.91-4.03,3.94v0.67c0,0.45,21.47,0.45,22.81-0.13v-0.54C27.48,55.46,25.71,53.78,23.45,53.55z"/>
	<polygon class="st0" points="98.92,26.44 16.41,26.44 57.55,0.95 	"/>
	<polygon class="st0" points="32.34,16.44 32.34,3.42 40.56,3.42 40.56,11.57 	"/>
	<polygon class="st0" points="107.33,64 103.2,64 103.2,58 93.58,57.95 93.58,54.88 107.33,54.88 	"/>
	<path class="st1" d="M104.9,47.74c-0.52-1.13-1.52-1.83-2.63-1.7c-1-1.1-2.64-1.1-3.64,0c-1.1-0.14-2.11,0.57-2.63,1.7
		c-1.37,0.2-2.43,1.63-2.43,3.36v3.25c0,0.38,12.94,0.38,13.75-0.11V51.1C107.33,49.37,106.27,47.94,104.9,47.74z"/>
	<rect x="80.16" y="58.63" class="st0" width="22.81" height="5.37"/>
	<path class="st1" d="M98.94,53.55c-0.86-1.33-2.52-2.15-4.36-2c-1.66-1.3-4.38-1.3-6.04,0c-1.83-0.16-3.49,0.67-4.36,2
		c-2.27,0.23-4.03,1.91-4.03,3.94v0.67c0,0.45,21.47,0.45,22.81-0.13v-0.54C102.97,55.46,101.21,53.78,98.94,53.55z"/>
</g>
</svg>
