<?xml version="1.0" encoding="utf-8"?>
<!-- Generator: Adobe Illustrator 24.0.0, SVG Export Plug-In . SVG Version: 6.00 Build 0)  -->
<svg version="1.1" id="Layer_1" xmlns="http://www.w3.org/2000/svg" xmlns:xlink="http://www.w3.org/1999/xlink" x="0px" y="0px"
	 viewBox="0 0 112 65" style="enable-background:new 0 0 112 65;" xml:space="preserve">
<style type="text/css">
	.st0{fill:none;stroke:#61BCB8;stroke-width:1.5;stroke-linecap:round;stroke-linejoin:round;stroke-miterlimit:10;}
	.st1{fill:#61BCB8;}
</style>
<g>
	<path class="st0" d="M108.82,58.41c0,0-71.17,1.59-93.8-0.43c-3.55-0.32-12.08-5.19-12.08-5.19S-0.2,34.38,4.2,34.02
		c2.87-0.23,11.56,0.69,11.56,0.69s12.89-5.92,17.37-7.4c25.75-8.51,47.6,11.29,47.6,11.29s24.32,1.33,28.72,7.28
		C111.31,48.4,108.82,58.41,108.82,58.41z"/>
	<circle class="st1" cx="23.3" cy="55.01" r="9.99"/>
	<circle class="st1" cx="88.22" cy="55.01" r="9.99"/>
	<path class="st1" d="M31.69,38.26l-4.95-5.27c0,0,10.06-4.82,17.17-4.82c7.49,0,23.48,2.09,31.14,10.31
		C78.24,41.9,31.69,38.26,31.69,38.26z"/>
	<polygon class="st0" points="2.07,44.23 2.07,39.4 7.45,39.4 7.45,43.32 	"/>
	<path class="st0" d="M104.66,51.19v-3.92c0,0,4.41-1.68,5.18-0.62c0.62,0.87,0,5.16,0,5.16L104.66,51.19z"/>
	<line class="st0" x1="49.52" y1="45.02" x2="56.39" y2="45.02"/>
	<line class="st0" x1="45.15" y1="44.4" x2="45.15" y2="56.26"/>
</g>
</svg>
