<?xml version="1.0" encoding="utf-8"?>
<!-- Generator: Adobe Illustrator 24.0.0, SVG Export Plug-In . SVG Version: 6.00 Build 0)  -->
<svg version="1.1" id="Layer_1" xmlns="http://www.w3.org/2000/svg" xmlns:xlink="http://www.w3.org/1999/xlink" x="0px" y="0px"
	 viewBox="0 0 196 54" style="enable-background:new 0 0 196 54;" xml:space="preserve">
<style type="text/css">
	.st0{fill:#475A5B;}
	.st1{fill:none;stroke:#475A5B;stroke-width:0.75;stroke-miterlimit:10;}
</style>
<g>
	<g>
		<g>
			<g>
				<path class="st0" d="M29.65,26.92v0.92h-3.98v6.97h-1.01v-15.4h5.85v0.92h-4.84v6.58H29.65z"/>
				<path class="st0" d="M38.12,19.42v15.4H37.1v-15.4H38.12z"/>
				<path class="st0" d="M45.86,34.82h-0.92v-15.4h1.32l4.62,13v-13h0.92v15.4h-1.12l-4.82-13.73V34.82z"/>
				<path class="st0" d="M60.07,31.41l-0.77,3.41h-0.92l3.37-15.42h1.47l3.43,15.42h-1.01l-0.77-3.41H60.07z M60.23,30.53h4.49
					l-2.27-9.97L60.23,30.53z"/>
				<path class="st0" d="M74.17,34.82h-0.92v-15.4h1.32l4.62,13v-13h0.92v15.4h-1.12l-4.82-13.73V34.82z"/>
				<path class="st0" d="M90.17,19.29c0.59,0,1.09,0.1,1.51,0.3c0.42,0.2,0.76,0.47,1.03,0.81s0.47,0.76,0.59,1.23
					c0.12,0.48,0.19,0.99,0.19,1.55v1.28h-0.97v-1.34c0-0.41-0.04-0.79-0.12-1.14c-0.08-0.35-0.22-0.66-0.41-0.92
					c-0.19-0.26-0.43-0.47-0.73-0.62c-0.29-0.15-0.65-0.22-1.08-0.22c-0.43,0-0.79,0.07-1.08,0.22c-0.29,0.15-0.54,0.35-0.73,0.62
					c-0.19,0.26-0.33,0.57-0.41,0.92s-0.12,0.73-0.12,1.14v8.01c0,0.41,0.04,0.79,0.12,1.14c0.08,0.35,0.22,0.66,0.41,0.91
					c0.19,0.26,0.43,0.46,0.73,0.6c0.29,0.15,0.65,0.22,1.08,0.22c0.42,0,0.78-0.07,1.08-0.22c0.29-0.15,0.54-0.35,0.73-0.6
					c0.19-0.26,0.33-0.56,0.41-0.91c0.08-0.35,0.12-0.73,0.12-1.14V29.3h0.97v1.76c0,0.56-0.06,1.07-0.19,1.55
					c-0.13,0.48-0.32,0.89-0.59,1.23s-0.62,0.62-1.03,0.81c-0.42,0.2-0.92,0.3-1.51,0.3c-0.59,0-1.09-0.1-1.51-0.3
					c-0.42-0.2-0.76-0.47-1.03-0.81c-0.27-0.34-0.47-0.76-0.59-1.23c-0.13-0.48-0.19-0.99-0.19-1.55v-7.88
					c0-0.56,0.06-1.07,0.19-1.55c0.12-0.48,0.32-0.89,0.59-1.23c0.27-0.34,0.62-0.62,1.03-0.81C89.08,19.39,89.58,19.29,90.17,19.29
					z"/>
				<path class="st0" d="M105.41,26.55v0.92h-4.2v6.42h5.06v0.92h-6.07v-15.4h6.07v0.92h-5.06v6.2H105.41z"/>
				<path class="st0" d="M125.15,20.35c-1.79,0-2.68,0.95-2.68,2.86v0.62c0,0.7,0.18,1.29,0.55,1.76c0.37,0.47,0.89,0.72,1.56,0.75
					h2.38v-1.72h1.01v1.72h0.84v0.92h-0.84v5.54c0,0.38,0.01,0.73,0.04,1.06c0.03,0.32,0.15,0.65,0.35,0.97h-1.06
					c-0.12-0.22-0.2-0.44-0.25-0.67c-0.05-0.23-0.08-0.5-0.08-0.8c-0.24,0.54-0.58,0.95-1.03,1.21c-0.46,0.26-0.98,0.4-1.56,0.4
					c-1.01,0-1.75-0.33-2.22-0.99c-0.47-0.66-0.7-1.52-0.7-2.57v-1.45c0-0.73,0.16-1.39,0.48-1.97c0.32-0.58,0.84-0.99,1.54-1.22
					c-0.7-0.21-1.22-0.59-1.54-1.15c-0.32-0.56-0.48-1.22-0.48-1.97v-0.37c0-1.25,0.3-2.2,0.91-2.85c0.61-0.65,1.54-0.98,2.78-0.98
					h2.18v0.92H125.15z M124.71,27.25c-0.73,0.04-1.29,0.3-1.67,0.78c-0.38,0.48-0.57,1.1-0.57,1.88v1.41
					c0,0.81,0.18,1.46,0.54,1.96c0.36,0.5,0.93,0.75,1.73,0.75c0.64,0,1.17-0.19,1.58-0.56c0.41-0.37,0.62-0.91,0.64-1.6v-4.62
					H124.71z"/>
				<path class="st0" d="M147.1,19.29c0.59,0,1.09,0.1,1.51,0.3c0.42,0.2,0.76,0.47,1.03,0.81s0.47,0.76,0.59,1.23
					c0.12,0.48,0.19,0.99,0.19,1.55v1.28h-0.97v-1.34c0-0.41-0.04-0.79-0.12-1.14c-0.08-0.35-0.22-0.66-0.41-0.92
					s-0.43-0.47-0.73-0.62c-0.29-0.15-0.65-0.22-1.08-0.22c-0.43,0-0.79,0.07-1.08,0.22c-0.29,0.15-0.54,0.35-0.73,0.62
					c-0.19,0.26-0.33,0.57-0.41,0.92c-0.08,0.35-0.12,0.73-0.12,1.14v8.01c0,0.41,0.04,0.79,0.12,1.14
					c0.08,0.35,0.22,0.66,0.41,0.91c0.19,0.26,0.43,0.46,0.73,0.6c0.29,0.15,0.65,0.22,1.08,0.22c0.42,0,0.78-0.07,1.08-0.22
					c0.29-0.15,0.54-0.35,0.73-0.6s0.33-0.56,0.41-0.91c0.08-0.35,0.12-0.73,0.12-1.14V29.3h0.97v1.76c0,0.56-0.06,1.07-0.19,1.55
					c-0.13,0.48-0.32,0.89-0.59,1.23s-0.62,0.62-1.03,0.81c-0.42,0.2-0.92,0.3-1.51,0.3c-0.59,0-1.09-0.1-1.51-0.3
					c-0.42-0.2-0.76-0.47-1.03-0.81c-0.27-0.34-0.47-0.76-0.59-1.23c-0.13-0.48-0.19-0.99-0.19-1.55v-7.88
					c0-0.56,0.06-1.07,0.19-1.55c0.12-0.48,0.32-0.89,0.59-1.23c0.27-0.34,0.62-0.62,1.03-0.81
					C146.02,19.39,146.52,19.29,147.1,19.29z"/>
				<path class="st0" d="M157.07,23.18c0-0.56,0.07-1.07,0.2-1.55c0.13-0.48,0.33-0.89,0.6-1.23c0.27-0.34,0.62-0.62,1.04-0.81
					c0.42-0.2,0.93-0.3,1.52-0.3c0.59,0,1.1,0.1,1.53,0.3c0.43,0.2,0.79,0.47,1.07,0.81c0.28,0.34,0.48,0.76,0.62,1.23
					c0.13,0.48,0.2,0.99,0.2,1.55v7.88c0,0.56-0.07,1.07-0.2,1.55c-0.13,0.48-0.34,0.89-0.62,1.23c-0.28,0.34-0.63,0.62-1.07,0.81
					c-0.43,0.2-0.94,0.3-1.53,0.3c-0.59,0-1.09-0.1-1.52-0.3c-0.43-0.2-0.77-0.47-1.04-0.81c-0.27-0.34-0.47-0.76-0.6-1.23
					c-0.13-0.48-0.2-0.99-0.2-1.55V23.18z M158.08,31.13c0,0.84,0.18,1.53,0.54,2.08c0.36,0.55,0.96,0.83,1.82,0.83
					c0.85,0,1.46-0.27,1.84-0.83c0.38-0.55,0.56-1.24,0.56-2.08v-8.01c0-0.84-0.19-1.53-0.56-2.08c-0.37-0.55-0.99-0.82-1.84-0.82
					c-0.85,0-1.46,0.27-1.82,0.82c-0.36,0.55-0.54,1.24-0.54,2.08V31.13z"/>
				<path class="st0" d="M171.35,32.89v1.94h-0.99v-1.94H171.35z"/>
			</g>
		</g>
		<line class="st1" x1="0.5" y1="1.13" x2="195.5" y2="1.13"/>
		<line class="st1" x1="0.5" y1="52.88" x2="195.5" y2="52.88"/>
	</g>
</g>
</svg>
